{"title":"The bay 2012 DVDrip Xvid Ac3 ADTRG","uid":7901546,"size":1280444416,"categoryP":"video","categoryS":"movies","magnet":"?xt=urn:btih:e2d1b099fbf783ea5529e43a7eb0d57dd2587d9c&amp;dn=The+bay+2012+DVDrip+Xvid+Ac3+ADTRG&amp;tr=udp%3A%2F%2Ftracker.openbittorrent.com%3A80&amp;tr=udp%3A%2F%2Fopen.demonii.com%3A1337&amp;tr=udp%3A%2F%2Ftracker.coppersurfer.tk%3A6969&amp;tr=udp%3A%2F%2Fexodus.desync.com%3A6969","seeders":0,"leechers":1,"uploader":"xxxlavalxxx","files":2,"time":1354976835,"description":" &lt;a href=&quot;http://www.shotpix.com/images/55876286379910303536.jpg&quot; rel=&quot;nofollow&quot; target=&quot;_NEW&quot;&gt;http://www.shotpix.com/images/55876286379910303536.jpg&lt;/a&gt;\n\n\n\nPlot:Chaos breaks out in a small Maryland town after an ecological disaster occurs. \n\n\n\nDirector: \nBarry Levinson\n\n Writer: \nMichael Wallach\n \nStars:\n Kristen Connolly, Jane McNeill and Christopher Denham\n\nGenres:\n Horror | Sci-Fi | Thriller \n\n\nCountry:\nUSA \n\nLanguage:\nEnglish \n\n\n\nGeneral &lt;a href=&quot;\nhttp://uk.imdb.com/title/tt1713476/&quot; rel=&quot;nofollow&quot; target=&quot;_NEW&quot;&gt;\nhttp://uk.imdb.com/title/tt1713476/&lt;/a&gt;\nComplete name                            :The Bay 2012 R5 DVDrip Xvid Ac3 ADTRG.avi\nSource                                   : DVD9 [Thanks]\nFormat                                   : AVI\nFormat/Info                              : Audio Video Interleave\nFile size                                : 1.18 GiB\nDuration                                 : 1h 21mn\nOverall bit rate                         : 2 090 Kbps\nWriting application                      : VirtualDubMod 1.5.10.2 (build 2540/release)\nWriting library                          : VirtualDubMod build 2540/release\n\nVideo\nID                                       : 0\nFormat                                   : MPEG-4 Visual\nFormat profile                           : Advanced Simple@L5\nFormat settings, BVOP                    : 2\nFormat settings, QPel                    : No\nFormat settings, GMC                     : No warppoints\nFormat settings, Matrix                  : Default (H.263)\nMuxing mode                              : Packed bitstream\nCodec ID                                 : XVID\nCodec ID/Hint                            : XviD\nDuration                                 : 1h 21mn\nBit rate                                 : 1 696 Kbps\nWidth                                    : 720 pixels\nHeight                                   : 368 pixels\nDisplay aspect ratio                     : 1.957\nFrame rate                               : 25.000 fps\nColor space                              : YUV\nChroma subsampling                       : 4:2:0\nBit depth                                : 8 bits\nScan type                                : Progressive\nCompression mode                         : Lossy\nBits/(Pixel*Frame)                       : 0.256\nStream size                              : 985 MiB (81%)\nWriting library                          : XviD 64\n\nAudio\nID                                       : 1\nFormat                                   : AC-3\nFormat/Info                              : Audio Coding 3\nMode extension                           : CM (complete main)\nCodec ID                                 : 2000\nDuration                                 : 1h 21mn\nBit rate mode                            : Constant\nBit rate                                 : 384 Kbps\nChannel(s)                               : 6 channels\nChannel positions                        : Front: L C R, Side: L R, LFE\nSampling rate                            : 48.0 KHz\nBit depth                                : 16 bits\nCompression mode                         : Lossy\nDelay relative to video                  : 1s 500ms\nStream size                              : 223 MiB (18%)\nAlignment                                : Split accross interleaves\nInterleave, duration                     : 40 ms (1.00 video frame)\nInterleave, preload duration             : 500 ms\n\n\n &lt;a href=&quot;\nhttp://www.shotpix.com/images/06962653918537932952.jpg&quot; rel=&quot;nofollow&quot; target=&quot;_NEW&quot;&gt;\nhttp://www.shotpix.com/images/06962653918537932952.jpg&lt;/a&gt; &lt;a href=&quot;\nhttp://www.shotpix.com/images/57058866052492556475.jpg&quot; rel=&quot;nofollow&quot; target=&quot;_NEW&quot;&gt;\nhttp://www.shotpix.com/images/57058866052492556475.jpg&lt;/a&gt; &lt;a href=&quot;\nhttp://www.shotpix.com/images/00911629542873651963.jpg&quot; rel=&quot;nofollow&quot; target=&quot;_NEW&quot;&gt;\nhttp://www.shotpix.com/images/00911629542873651963.jpg&lt;/a&gt; &lt;a href=&quot;\nhttp://www.shotpix.com/images/80296974280454771857.jpg&quot; rel=&quot;nofollow&quot; target=&quot;_NEW&quot;&gt;\nhttp://www.shotpix.com/images/80296974280454771857.jpg&lt;/a&gt;","torrent":{"xt":"urn:btih:e2d1b099fbf783ea5529e43a7eb0d57dd2587d9c","amp;dn":"The+bay+2012+DVDrip+Xvid+Ac3+ADTRG","amp;tr":["udp%3A%2F%2Ftracker.openbittorrent.com%3A80","udp%3A%2F%2Fopen.demonii.com%3A1337","udp%3A%2F%2Ftracker.coppersurfer.tk%3A6969","udp%3A%2F%2Fexodus.desync.com%3A6969"],"infoHash":"e2d1b099fbf783ea5529e43a7eb0d57dd2587d9c","infoHashBuffer":{"type":"Buffer","data":[226,209,176,153,251,247,131,234,85,41,228,58,126,176,213,125,210,88,125,156]},"announce":[],"urlList":[]}}